<svg width="100" height="100" viewBox="0 0 100 100" fill="none" xmlns="http://www.w3.org/2000/svg">
<path d="M41.272 71.7622C39.5369 73.4549 37.9183 74.3013 36.416 74.3013C35.4427 74.3013 34.7868 73.9416 34.4482 73.2222C34.9349 72.6297 35.1782 71.741 35.1782 70.5562V70.0801C35.1782 69.9531 35.1676 69.8368 35.1465 69.731C34.0885 68.7788 33.5596 67.6574 33.5596 66.3667C33.5596 65.0549 34.1732 63.7218 35.4004 62.3677C35.0407 61.6483 34.8608 60.8866 34.8608 60.0825C34.8608 59.2573 34.9772 58.4956 35.21 57.7974C35.4639 57.078 35.8024 56.4538 36.2256 55.9248C37.1143 54.7611 37.9818 54.1792 38.8281 54.1792C39.6956 54.1792 40.3092 54.5177 40.6689 55.1948C39.9072 55.9989 39.5264 57.2578 39.5264 58.9717C39.5264 60.6855 39.7697 62.1667 40.2563 63.415C40.7642 64.6423 41.473 65.7002 42.3828 66.5889C44.2871 68.4508 46.7733 69.3818 49.8413 69.3818C51.9149 69.3818 53.6393 68.8529 55.0146 67.7949C56.5381 66.61 57.2998 64.9596 57.2998 62.8438C57.2998 61.3203 56.9401 60.0825 56.2207 59.1304C55.0993 57.6493 53.3431 56.0835 50.9521 54.4331C49.1113 53.1424 47.6408 52.4971 46.5405 52.4971C45.4191 52.4971 44.1813 52.952 42.8271 53.8618C43.1868 52.7827 43.3667 51.7777 43.3667 50.8467C43.3667 50.6351 43.1657 50.36 42.7637 50.0215L41.5894 48.9741C37.8866 45.5675 35.6966 42.4043 35.0195 39.4844C34.7868 38.4688 34.6704 37.305 34.6704 35.9932C34.6704 34.6602 34.9032 33.3483 35.3687 32.0576C35.8553 30.7669 36.5218 29.6243 37.3682 28.6299C39.082 26.6198 41.4201 25.2233 44.3823 24.4404V13.0464C44.6785 12.8771 45.1758 12.7925 45.874 12.7925C46.5723 12.7925 47.2388 13.1416 47.8735 13.8398C48.5083 14.5169 48.8257 15.5326 48.8257 16.8867V23.8374L49.3018 23.8057C50.127 23.8057 50.9204 23.848 51.6821 23.9326V13.0464C51.9784 12.8771 52.4756 12.7925 53.1738 12.7925C53.8721 12.7925 54.5386 13.1416 55.1733 13.8398C55.8081 14.5169 56.1255 15.5326 56.1255 16.8867V24.98C57.5431 25.382 58.654 25.583 59.458 25.583C60.4736 25.583 61.1825 25.3079 61.5845 24.7578C62.0076 24.2077 62.2192 23.7739 62.2192 23.4565C62.2192 23.1392 62.1769 22.8747 62.0923 22.6631C62.2404 22.5996 62.4414 22.5679 62.6953 22.5679C62.9704 22.5679 63.2666 22.6631 63.584 22.8535C63.9014 23.0228 64.187 23.2661 64.4409 23.5835C65.0122 24.3029 65.2979 25.1175 65.2979 26.0273C65.2979 26.916 65.0439 27.5931 64.5361 28.0586C65.2555 28.6934 65.6152 29.6772 65.6152 31.0103C65.6152 32.3221 65.1709 33.4224 64.2822 34.311C64.4515 34.8823 64.5361 35.4007 64.5361 35.8662C64.5361 36.3105 64.4515 36.7443 64.2822 37.1675C64.1341 37.5695 63.9225 37.9186 63.6475 38.2148C63.0339 38.8708 62.452 39.1987 61.9019 39.1987C61.0343 39.1987 60.3044 39.0506 59.7119 38.7544C60.0716 37.908 60.2515 36.9982 60.2515 36.0249C60.2515 35.0516 60.0293 34.0677 59.585 33.0732C59.1618 32.0788 58.5588 31.2324 57.7759 30.5342C56.1466 29.0531 53.9884 28.3125 51.3013 28.3125C49.6086 28.3125 48.2227 28.778 47.1436 29.709C46.1279 30.5977 45.6201 31.7191 45.6201 33.0732C45.6201 34.11 45.874 34.9775 46.3818 35.6758C47.2705 36.8818 48.6776 38.1302 50.603 39.4209L52.1265 40.4365C52.9728 40.9655 53.5441 41.23 53.8403 41.23C54.1366 41.23 54.4328 41.1982 54.729 41.1348C55.0252 41.0713 55.3532 40.9867 55.7129 40.8809C56.4746 40.627 57.2152 40.2673 57.9346 39.8018L57.522 41.5791C57.395 42.1715 57.3315 42.6053 57.3315 42.8804C57.3315 43.3247 57.5537 43.7267 57.998 44.0864C61.9548 47.5142 64.5996 50.3812 65.9326 52.6875C67.0964 54.6976 67.6782 57.1414 67.6782 60.019C67.6782 62.9813 66.6732 65.6367 64.6631 67.9854C62.5472 70.4609 59.7013 72.1325 56.1255 73V84.394C55.8293 84.5633 55.332 84.6479 54.6338 84.6479C53.9355 84.6479 53.269 84.2988 52.6343 83.6006C51.9995 82.9235 51.6821 81.9079 51.6821 80.5537V73.603L50.6665 73.6348C50.0317 73.6348 49.4181 73.6136 48.8257 73.5713V84.394C48.5295 84.5633 48.0322 84.6479 47.334 84.6479C46.6357 84.6479 45.9692 84.2988 45.3345 83.6006C44.6997 82.9235 44.3823 81.9079 44.3823 80.5537V72.9048C43.2397 72.6297 42.203 72.2489 41.272 71.7622ZM39.082 33.3271C38.278 33.6657 37.876 34.5332 37.876 35.9297C37.876 38.8919 39.812 42.0869 43.6841 45.5146L45.2393 46.9111C46.1914 47.7575 46.6675 48.2759 46.6675 48.4663C46.6675 49.0799 46.6146 49.5243 46.5088 49.7993C46.9954 49.4819 47.4504 49.3232 47.8735 49.3232C48.4237 49.3232 49.4816 49.8099 51.0474 50.7832C54.6867 53.026 57.2469 55.1525 58.728 57.1626C59.786 58.6226 60.3361 60.4422 60.3784 62.6216C60.3784 63.4045 60.3255 64.0604 60.2197 64.5894C61.3411 63.87 61.9019 62.7274 61.9019 61.1616C61.9019 59.6382 61.6903 58.4639 61.2671 57.6387C60.8651 56.8135 60.389 56.0835 59.8389 55.4487C59.2887 54.7928 58.5693 54.084 57.6807 53.3223C56.8132 52.5605 55.734 51.7354 54.4434 50.8467L49.9365 47.7681C46.2337 45.3348 43.4196 42.764 41.4941 40.0557C39.8014 37.6647 38.9974 35.4219 39.082 33.3271Z" fill="#864FDE"/>
</svg>
